<?xml version="1.0" encoding="UTF-8"?><svg id="Layer_1" xmlns="http://www.w3.org/2000/svg" viewBox="0 0 303.11 90.06" width="303" height="90"><defs><style>.cls-1{fill:#fff;}.cls-2,.cls-3{fill:#CC0033;}.cls-4{fill:#000;}.cls-3{fill-rule:evenodd;}</style></defs><path class="cls-4" d="m152.85,85.59c.66-.36,1.18-.95,1.56-1.78.38-.83.58-1.94.58-3.34v-7.7h-1.49v7.74c0,1.05-.13,1.88-.38,2.49-.25.61-.6,1.04-1.03,1.29-.43.25-.92.38-1.47.38s-1.01-.13-1.44-.38c-.43-.25-.77-.68-1.02-1.29-.25-.61-.38-1.44-.38-2.49v-7.74h-1.54v7.7c0,1.4.19,2.51.58,3.34.38.83.91,1.42,1.57,1.78.66.36,1.41.54,2.24.54s1.57-.18,2.23-.54h0Z"/><path class="cls-4" d="m160.21,85.89v-7.04c.46-.49.87-.87,1.24-1.12.37-.25.78-.38,1.24-.38.6,0,1.03.21,1.3.62.27.41.41,1.07.41,1.98v5.94h1.52v-6.16c0-1.24-.22-2.18-.66-2.83-.44-.65-1.14-.97-2.09-.97-.62,0-1.17.16-1.65.47-.48.31-.94.7-1.38,1.17h-.06l-.13-1.4h-1.26v9.72h1.52Zm10.69,0v-9.72h-1.52v9.72h1.52Zm0-12.01c.19-.19.29-.46.29-.79s-.1-.58-.29-.78c-.19-.2-.44-.3-.73-.3s-.54.1-.73.3c-.19.2-.29.46-.29.78s.1.6.29.79c.19.19.44.29.73.29s.54-.1.73-.29h0Zm7.32,12.01l3.2-9.72h-1.51l-1.71,5.52c-.12.48-.26.96-.4,1.44-.14.48-.28.95-.42,1.42h-.07c-.14-.47-.28-.94-.42-1.42-.14-.48-.28-.96-.42-1.44l-1.71-5.52h-1.58l3.25,9.72h1.79Zm10.79-.06c.49-.2.93-.43,1.31-.7l-.54-1.08c-.33.23-.69.41-1.05.55-.37.14-.77.21-1.2.21-.87,0-1.57-.31-2.11-.92-.54-.61-.84-1.43-.9-2.46h6.1c.02-.12.04-.26.05-.43,0-.17,0-.34,0-.51,0-1.39-.31-2.49-.94-3.32-.63-.83-1.52-1.24-2.67-1.24-.68,0-1.33.21-1.95.62-.62.41-1.12,1-1.52,1.76-.39.76-.59,1.67-.59,2.74s.19,1.96.58,2.72c.38.76.9,1.34,1.56,1.75.66.41,1.39.61,2.19.61.62,0,1.17-.1,1.66-.3h0Zm-3.61-7.81c.5-.53,1.07-.79,1.7-.79.71,0,1.26.26,1.65.77.39.51.59,1.26.59,2.25h-4.83c.1-.96.4-1.7.9-2.23h0Zm9.55,7.87v-6.24c.31-.83.67-1.41,1.09-1.74.42-.33.81-.5,1.2-.5.19,0,.34.01.46.04.12.03.26.07.41.12l.3-1.44c-.29-.13-.61-.2-.97-.2-.51,0-.99.18-1.43.54s-.82.85-1.13,1.46h-.06l-.13-1.76h-1.26v9.72h1.52Zm9.62-.16c.49-.27.86-.62,1.12-1.06.25-.44.38-.92.38-1.44,0-.61-.14-1.1-.42-1.47-.28-.37-.63-.66-1.05-.88-.42-.22-.85-.42-1.28-.59-.33-.15-.65-.29-.95-.43-.3-.14-.54-.31-.73-.5-.19-.19-.28-.44-.28-.75,0-.37.13-.7.4-.98.27-.28.68-.42,1.26-.42.4,0,.76.08,1.1.24.33.16.66.37.97.62l.74-1.04c-.35-.31-.76-.57-1.25-.78-.48-.21-1-.32-1.56-.32-.98,0-1.75.26-2.3.79-.55.53-.83,1.18-.83,1.97,0,.55.13,1,.39,1.35.26.35.6.64,1,.86s.82.42,1.25.59c.33.13.66.28.98.43.32.15.58.34.78.57.2.23.31.51.31.84,0,.41-.15.77-.45,1.07-.3.3-.74.45-1.34.45-.53,0-1.01-.11-1.43-.33-.42-.22-.83-.5-1.23-.83l-.76,1.1c.43.37.94.69,1.52.95.58.26,1.2.39,1.84.39.72,0,1.32-.13,1.81-.4h0Zm5.66.16v-9.72h-1.52v9.72h1.52Zm0-12.01c.19-.19.29-.46.29-.79s-.1-.58-.29-.78c-.19-.2-.44-.3-.73-.3s-.54.1-.73.3c-.19.2-.29.46-.29.78s.1.6.29.79c.19.19.44.29.73.29s.54-.1.73-.29h0Zm7.29,12.14c.29-.07.56-.16.81-.25l-.3-1.24c-.15.05-.32.11-.5.17-.19.06-.36.09-.52.09-.52,0-.88-.16-1.09-.49-.2-.33-.31-.79-.31-1.39v-5.4h2.44v-1.34h-2.44v-2.72h-1.28l-.19,2.72-1.41.1v1.24h1.34v5.38c0,.96.19,1.74.57,2.34.38.6,1.05.9,2.02.9.29,0,.57-.04.86-.11h0Zm4.8,3.6c.43-.3.79-.7,1.08-1.21.29-.51.54-1.08.75-1.72l3.4-10.52h-1.49l-1.62,5.38c-.12.43-.25.88-.37,1.36-.12.48-.25.94-.39,1.38h-.07c-.14-.45-.28-.92-.44-1.4-.16-.48-.3-.93-.44-1.34l-1.84-5.38h-1.58l3.63,9.74-.2.72c-.19.6-.45,1.1-.78,1.49-.33.39-.76.59-1.26.59-.11,0-.23-.02-.35-.05-.12-.03-.24-.06-.33-.09l-.3,1.3c.15.05.31.1.49.14.18.04.37.06.57.06.61,0,1.12-.15,1.55-.45h0Zm18.77-3.73v-1.42h-5.34v-11.7h-1.54v13.12h6.88Zm4.05,0v-9.72h-1.52v9.72h1.52Zm0-12.01c.19-.19.29-.46.29-.79s-.1-.58-.29-.78c-.19-.2-.44-.3-.73-.3s-.54.1-.73.3c-.19.2-.29.46-.29.78s.1.6.29.79c.19.19.44.29.73.29s.54-.1.73-.29h0Zm9.5,11.63c.59-.41,1.07-1.01,1.43-1.8.37-.79.55-1.73.55-2.84,0-1.51-.3-2.71-.91-3.6-.61-.89-1.5-1.34-2.68-1.34-.5,0-.99.13-1.48.39-.49.26-.94.58-1.35.97l.04-1.76v-3.88h-1.52v14.24h1.23l.13-1h.06c.4.39.82.69,1.27.91.45.22.89.33,1.31.33.69,0,1.34-.21,1.92-.62h0Zm-3.22-.99c-.39-.15-.78-.42-1.18-.79v-5.1c.43-.43.85-.75,1.25-.98.4-.23.79-.34,1.17-.34.86,0,1.47.33,1.83.99.37.66.55,1.52.55,2.59,0,1.2-.24,2.14-.73,2.83-.49.69-1.11,1.03-1.85,1.03-.3,0-.64-.08-1.03-.23h0Zm9.62,1.37v-6.24c.31-.83.67-1.41,1.09-1.74.42-.33.82-.5,1.2-.5.19,0,.34.01.46.04.12.03.26.07.41.12l.3-1.44c-.29-.13-.61-.2-.97-.2-.51,0-.99.18-1.43.54-.45.36-.82.85-1.13,1.46h-.06l-.13-1.76h-1.26v9.72h1.52Z"/><path class="cls-4" d="m269.43,85.71c.5-.28.96-.61,1.39-.98h.06l.13,1.16h1.26v-5.96c0-1.21-.25-2.18-.74-2.91-.5-.73-1.3-1.09-2.4-1.09-.72,0-1.39.14-2,.41-.61.27-1.13.56-1.55.85l.6,1.14c.36-.27.77-.51,1.23-.72.46-.21.95-.32,1.47-.32s.88.12,1.14.35c.27.23.45.54.56.91.11.37.16.77.16,1.18-1.92.23-3.33.62-4.21,1.19-.89.57-1.33,1.38-1.33,2.45,0,.87.25,1.54.75,2.03.5.49,1.13.73,1.89.73.57,0,1.11-.14,1.61-.42h0Zm-2.3-1.27c-.31-.25-.46-.64-.46-1.19,0-.63.3-1.14.9-1.54.6-.4,1.65-.7,3.15-.9v2.7c-.43.41-.84.73-1.23.96-.38.23-.79.34-1.23.34s-.82-.12-1.13-.37h0Zm10,1.45v-6.24c.31-.83.67-1.41,1.09-1.74.42-.33.82-.5,1.2-.5.19,0,.34.01.46.04.12.03.26.07.41.12l.3-1.44c-.29-.13-.61-.2-.97-.2-.51,0-.99.18-1.43.54-.45.36-.82.85-1.13,1.46h-.06l-.13-1.76h-1.26v9.72h1.52Zm6.95,0v-9.72h-1.52v9.72h1.52Zm0-12.01c.19-.19.29-.46.29-.79s-.1-.58-.29-.78c-.19-.2-.44-.3-.73-.3s-.54.1-.73.3c-.19.2-.29.46-.29.78s.1.6.29.79c.19.19.44.29.73.29s.54-.1.73-.29h0Zm8.89,11.95c.49-.2.93-.43,1.31-.7l-.54-1.08c-.33.23-.69.41-1.05.55-.37.14-.77.21-1.2.21-.87,0-1.57-.31-2.11-.92-.54-.61-.84-1.43-.9-2.46h6.1c.02-.12.04-.26.05-.43,0-.17,0-.34,0-.51,0-1.39-.31-2.49-.94-3.32-.63-.83-1.52-1.24-2.67-1.24-.68,0-1.33.21-1.95.62-.62.41-1.12,1-1.52,1.76-.39.76-.59,1.67-.59,2.74s.19,1.96.58,2.72c.38.76.9,1.34,1.56,1.75.66.41,1.39.61,2.19.61.62,0,1.17-.1,1.66-.3h0Zm-3.61-7.81c.5-.53,1.07-.79,1.7-.79.71,0,1.26.26,1.65.77.39.51.59,1.26.59,2.25h-4.83c.1-.96.4-1.7.9-2.23h0Z"/><path class="cls-4" d="m301.6,85.73c.49-.27.86-.62,1.12-1.06.25-.44.38-.92.38-1.44,0-.61-.14-1.1-.42-1.47-.28-.37-.63-.66-1.05-.88-.42-.22-.85-.42-1.28-.59-.33-.15-.65-.29-.95-.43-.3-.14-.54-.31-.73-.5-.19-.19-.28-.44-.28-.75,0-.37.13-.7.4-.98.27-.28.68-.42,1.26-.42.4,0,.76.08,1.1.24.33.16.66.37.97.62l.74-1.04c-.35-.31-.76-.57-1.25-.78-.48-.21-1-.32-1.56-.32-.98,0-1.75.26-2.3.79-.55.53-.83,1.18-.83,1.97,0,.55.13,1,.39,1.35.26.35.6.64,1,.86.41.22.82.42,1.25.59.33.13.66.28.98.43.32.15.58.34.78.57.2.23.31.51.31.84,0,.41-.15.77-.45,1.07-.3.3-.74.45-1.34.45-.53,0-1.01-.11-1.43-.33-.42-.22-.83-.5-1.23-.83l-.76,1.1c.43.37.94.69,1.52.95.58.26,1.2.39,1.84.39.72,0,1.32-.13,1.81-.4h0Z"/><path class="cls-3" d="m146.43,53.98l1.56-.47v-26.19c0-6.34,0-6.6,2.02-6.81l1.87-.16v-1.12h-12.62v1.12l1.87.16c2.03.21,2.03.47,2.03,6.81v21.1c-.78.94-4,4.16-9.4,4.16-8.05,0-9.29-4.93-9.29-12.37v-12.89c0-6.34,0-6.6,2.03-6.81l1.87-.15v-1.12h-12.62v1.12l1.87.15c2.02.21,2.02.47,2.02,6.81v13.72c0,7.07.88,13.25,11.63,13.25,6.91,0,11.22-3.27,11.95-3.27.78,0,1.2.73,1.92,1.46l1.3,1.5h0Zm0,0"/><path class="cls-3" d="m160.34,53.51h14.38v-1.12l-1.87-.16c-2.91-.21-2.91-.46-2.91-6.81v-24.74h2.7c7.32,0,7.43.78,8.57,6.81h1.25c0-.21-.26-7.12-.47-8.26h-28.93c-.21,1.14-.46,8.05-.46,8.26h1.25c1.14-6.03,1.25-6.81,8.57-6.81h2.7v24.74c0,6.34,0,6.6-2.86,6.81l-1.92.16v1.12Zm0,0"/><path class="cls-3" d="m214.43,46.67c0-5.05,0-5.31.99-5.52l1.87-.16v-1.12h-13.19v1.12l1.87.16c3.63.21,3.63.47,3.63,6.83v3.92c-1.82.47-4.2.67-6.07.67-10.18,0-14.69-8.23-14.69-17.08,0-9.71,5.35-15.32,13.86-15.32s9.56,6.34,10.07,8.41l1.41-.31c-.23-2.56-.5-5.47-.83-7.69-1.35-.83-5.3-2.13-10.59-2.13-8.21,0-19.37,4.16-19.37,18.02s9.35,17.81,19.79,17.81c5.55,0,9.53-1.49,11.37-2.07,0,0-.1-3.98-.1-5.54h0Zm0,0"/><path class="cls-3" d="m220.48,53.51h23.78c.68-2.81,1.26-5.4,1.71-8.62l-1.29-.21c-1.04,4.26-1.56,7.38-9.83,7.38-1.86,0-3.78-.31-5.64-.68v-14.96h4.61c4.04,0,4.97.05,5.28,2.18l.26,1.76h1.37v-9.34h-1.37l-.26,1.77c-.31,2.13-1.24,2.18-5.28,2.18h-4.61v-14.28h4.3c7.33,0,7.43.78,8.58,6.34l1.25-.21c0-.46-.27-6.44-.47-7.58h-22.38v1.12l1.87.16c2.03.21,2.03.47,2.03,6.81v18.1c0,6.35,0,6.61-2.03,6.82l-1.87.16v1.12Zm0,0"/><path class="cls-3" d="m250.05,53.51h12.57v-1.12l-1.87-.16c-1.97-.21-1.97-.47-1.97-6.81v-6.87h1.92c1.09,0,2.39,0,3.22.68.67.57,1.86,2.55,3.21,5.1l2.08,4.01c1.56,2.86,3.94,5.17,7.37,5.17h4v-1.12c-1.15,0-2.08-.21-2.6-.52-1.3-.73-3.59-3.8-5.76-7.7-1.41-2.5-3.12-5.83-3.9-7.28,2.86-1.35,7.17-4.21,7.17-9.05,0-7.9-6.96-8.61-11.89-8.61h-13.56v1.12l1.87.16c2.03.21,2.03.47,2.03,6.81v18.1c0,6.35,0,6.61-2.03,6.82l-1.87.15v1.12Zm8.72-32.15c1.04-.21,2.13-.41,3.22-.41,4.05,0,8.05,1.87,8.05,7.95s-3.95,8.2-8.3,8.2h-2.96v-15.73Zm0,0"/><path class="cls-3" d="m291.89,32.22c-2.8-1.66-5.03-3.32-5.03-6.39,0-3.48,2.64-5.66,5.66-5.66,5.87,0,6.7,4.52,7.21,7.11h1.3c-.12-1.51-.25-5.32-.52-7.16-1.35-.83-3.95-1.66-7.16-1.66-5.5,0-10.8,2.65-10.8,8.99,0,3.89,2.75,7.11,5.71,8.72l3.32,1.82c4.05,1.82,7.22,4.42,7.22,8.2,0,4.05-2.65,6.39-6.23,6.39-7.11,0-9.04-6.18-9.6-9.92l-1.66.42c.59,3.56,1.16,7.18,1.66,9.14,1.61.98,4.1,2.08,8.15,2.08,5.5,0,11.99-2.7,11.99-9.71,0-6.23-4.25-8.41-8.36-10.75l-2.85-1.61h0Zm0,0"/><path class="cls-3" d="m103.8,33.72c.59,3.29,5.18,11.74,6.94,14.88,3.98,7.34,14.16,22.17,21.79,21.7h.88s0,1.21,0,1.21l-1.34.05c-10.78.42-20.41-11.58-26.01-21.21-2.28-3.91-4.48-8.46-6.46-12.54-.49-1.05-1.11-1.73-1.8-2.15-1.06-.56-2.44-.55-3.59-.55-.67,0-2.64,0-3.67,0v8.65c0,1.59-.12,5.53.31,7.08.34,1.22,1.08,1.38,2.31,1.51l2.11.17v.98h-14.72v-.98l2.11-.17c1.25-.13,2.01-.28,2.36-1.51.44-1.54.32-5.5.32-7.08v-22.26c0-1.58.12-5.54-.32-7.08-.35-1.23-1.11-1.38-2.36-1.51l-2.11-.18v-.98h10.04c8.83,0,20.76-1.25,20.76,11.17,0,5.03-3.42,8.3-7.6,10.36.02.2.06.44.06.44h0Zm-13.26,0c1.59.09,3.3-.05,4.89-.05,6.15,0,9.9-3.3,9.9-9.44,0-6.68-3.81-10.79-10.62-10.79-1.4,0-2.79.27-4.16.55v19.73Zm0,0"/><path class="cls-1" d="m0,0v48.4c.18,8.1,2.83,15.07,7.86,20.74,8.96,10.07,22.52,12.57,24.04,12.82.11.02.18.03.21.04l.3.04.31-.04c.61-.09,14.93-2.29,24.3-12.86,2.12-2.4,3.84-5.07,5.1-7.94,1.7-3.86,2.61-8.17,2.71-12.81V0H0Zm0,0"/><path class="cls-2" d="m42.08,3.52h-5.16l-.57,14.2c.15.03.31.06.46.09l5.27-14.29Zm0,0"/><polygon class="cls-2" points="50.49 21.69 61.32 13.82 61.32 4.18 48.58 21.69 50.49 21.69"/><path class="cls-2" d="m44.46,21.07L60.67,3.52h-8.62l-7.98,17.29c.13.09.26.17.39.26h0Zm0,0"/><path class="cls-2" d="m40.8,19.06l9.52-15.54h-6.25l-3.7,15.36c.15.06.29.12.43.18h0Zm0,0"/><path class="cls-2" d="m61.32,21.69v-5.52l-5.98,5.52h5.98Zm0,0"/><path class="cls-2" d="m32.41,17.36c.09,0,.18,0,.27,0l2.18-13.84h-4.84l2.19,13.84c.06,0,.12,0,.19,0h0Zm0,0"/><path class="cls-2" d="m28.52,17.72l-.57-14.2h-5.16l5.27,14.29c.15-.03.31-.06.46-.09h0Zm0,0"/><polygon class="cls-2" points="16.3 21.69 3.56 4.18 3.56 13.82 14.39 21.69 16.3 21.69"/><path class="cls-2" d="m20.81,20.81L12.83,3.52H4.21l16.22,17.54c.12-.09.26-.17.39-.26h0Zm0,0"/><path class="cls-2" d="m24.51,18.88l-3.69-15.36h-6.25l9.52,15.54c.14-.06.29-.12.43-.18h0Zm0,0"/><path class="cls-2" d="m3.56,16.17v5.52h5.98l-5.98-5.52Zm0,0"/><path class="cls-2" d="m0,0v48.4c.18,8.1,2.83,15.07,7.86,20.74,8.96,10.07,22.52,12.57,24.04,12.82.11.02.18.03.21.04l.3.04.31-.04c.61-.09,14.93-2.29,24.3-12.86,2.12-2.4,3.84-5.07,5.1-7.94,1.7-3.86,2.61-8.17,2.71-12.81V0H0Zm63.17,48.36c-.1,4.4-.96,8.49-2.57,12.16-1.19,2.72-2.82,5.25-4.83,7.52-8.98,10.15-22.72,12.24-23.3,12.32h-.06s-.06,0-.06,0c-.03,0-.09-.01-.18-.03-1.46-.24-14.49-2.64-23.08-12.29-4.76-5.36-7.27-11.98-7.44-19.68V1.65h61.52v46.71Zm0,0"/><path class="cls-2" d="m15.12,43.1v1.75h1.7v-1.75h-1.7Zm0,0"/><path class="cls-2" d="m11.89,41.88l.03.11h4.9v-5.65l-.2.08c-.34.13-.68.2-1.06.23-.06,0-.12,0-.19,0-.03,0-.06,0-.09,0-.85,0-1.68-.18-2.45-.54-.08-.04-.15-.07-.24-.12-.26-.11-.54-.17-.82-.17-1.14,0-2.07.93-2.07,2.06,0,.68.13.91.98,1.84.58.62.98,1.35,1.22,2.16h0Zm0,0"/><rect class="cls-2" x="21.31" y="43.1" width="1.71" height="1.75"/><path class="cls-2" d="m3.57,48.41c.16,7.22,2.51,13.43,6.97,18.44,7.09,7.98,17.6,10.75,20.96,11.46V23.55H3.57v24.85Zm8.74,6.5h-2.72v-.21l.53-.06c.35-.04.35-.11.35-.98v-2.11c0-.96-.06-1.04-.22-1.04-.09,0-.17.01-.27.03l-.53.09-.07-.21c.34-.14,1.79-.63,1.92-.67l.12.09v3.83c0,.86,0,.93.35.98l.53.06v.21Zm12.46-6.9h-14.55v-.52h14.55v.52Zm-14.55-1.57h14.55v.52h-14.55v-.52Zm5.39,6.45c-.41.98-.52,1.04-.79,2.19l-.09.06c-.36-.16-.6-.31-.81-.59.09-.56,1.08-1.64,1.77-2.75.37-.6.46-.9.52-1.19h-1.54c-.89,0-.82,0-1.06.62l-.21-.06c.05-.45.12-.9.36-1.31h3.21l.07.09c-.22.82-.59,1.2-1.45,2.94h0Zm3.9,2.14c-.96,0-1.78-.7-1.78-2.17,0-2.17,1.42-3.11,2.72-3.11.38,0,.65.1.77.15l-.06.22c-.14-.03-.23-.06-.51-.06-1.09,0-1.92.9-1.92,2.7,0,1.14.33,1.97,1.01,1.97.53,0,.73-.54.73-1.05,0-.77-.44-1.45-1.05-1.45-.07,0-.14,0-.21.02l-.03-.14c.18-.14.43-.34.88-.34.66,0,1.27.59,1.27,1.34,0,1.27-.79,1.92-1.8,1.92h0Zm4.41,0c-.96,0-1.78-.7-1.78-2.17,0-2.17,1.43-3.11,2.72-3.11.38,0,.65.1.76.15l-.06.22c-.14-.03-.23-.06-.51-.06-1.09,0-1.92.9-1.92,2.7,0,1.14.33,1.97,1.01,1.97.53,0,.73-.54.73-1.05,0-.77-.44-1.45-1.06-1.45-.07,0-.13,0-.21.02l-.03-.14c.18-.14.43-.34.88-.34.66,0,1.27.59,1.27,1.34,0,1.27-.79,1.92-1.8,1.92h0Zm-6.41-24.17c.7,0,1.27.57,1.27,1.27s-.57,1.27-1.27,1.27-1.27-.57-1.27-1.27.57-1.27,1.27-1.27h0Zm-5.76,3.44c.52,0,1.03.11,1.5.32.07.03.14.07.21.1.57.26,1.18.4,1.8.4h.06c.05,0,.1,0,.15,0,.69-.05,1.31-.45,1.63-1.07h.84c.32.62.94,1.02,1.64,1.07.05,0,.1,0,.17,0h.04c.58,0,1.14-.11,1.69-.34.14-.08.27-.15.41-.21.44-.18.91-.28,1.39-.28,1.99,0,3.61,1.62,3.61,3.61,0,.93-.48,1.93-1.35,2.84-.02.02-.04.04-.06.06-.51.57-.85,1.26-.97,2.01-.02.13-.03.26-.04.4v.44c.02.45.13.88.3,1.29v.87h-14.55v-.82c.22-.5.33-1.03.33-1.57,0-.2-.01-.41-.04-.61-.12-.76-.46-1.46-.97-2.03-.02-.02-.04-.05-.06-.07-.87-.91-1.34-1.89-1.34-2.83,0-1.99,1.62-3.61,3.61-3.61h0Zm0,0"/><rect class="cls-2" x="12.04" y="43.1" width="1.7" height="1.75"/><path class="cls-2" d="m23.15,41.88c.23-.81.64-1.53,1.21-2.15.1-.12.99-1.19.99-1.84,0-1.14-.93-2.06-2.06-2.06-.27,0-.54.05-.79.16-.08.03-.16.07-.24.12l-.19.09c-.72.31-1.48.46-2.27.46h-.1c-.06,0-.12,0-.21,0-.36-.02-.72-.1-1.06-.24l-.2-.08v5.67h4.89l.03-.11Zm0,0"/><rect class="cls-2" x="18.22" y="43.1" width="1.7" height="1.75"/><path class="cls-2" d="m42.39,45.13c.37-.03.64-.09.88-.13.26-.06.49-.1.8-.11.49-.02,1,.1,1.52.32v-.65c-.52-.19-1.03-.29-1.53-.28-.38,0-.65.06-.92.12-.23.05-.47.1-.8.12-.48.03-.96,0-1.44-.1v.62c.49.09.99.13,1.48.09h0Zm0,0"/><path class="cls-2" d="m42.39,43.47c.37-.03.64-.08.88-.13.26-.06.49-.1.8-.11.49-.01,1,.1,1.52.32v-.65c-.52-.19-1.03-.28-1.53-.28-.38,0-.65.06-.92.12-.23.05-.47.1-.8.12-.48.03-.96,0-1.44-.11v.62c.49.09.99.13,1.48.09h0Zm0,0"/><path class="cls-2" d="m42.39,41.82c.37-.03.64-.08.88-.13.26-.06.49-.1.8-.11.5-.02,1,.1,1.52.32v-.65c-.51-.19-1.02-.29-1.53-.27-.38,0-.65.06-.92.12-.23.05-.47.1-.8.12-.48.04-.96,0-1.44-.1v.62c.49.09.99.12,1.48.09h0Zm0,0"/><path class="cls-2" d="m42.39,38.51c.37-.03.64-.08.88-.13.26-.06.49-.1.8-.11.49-.01,1,.1,1.52.32v-.65c-.52-.19-1.03-.29-1.53-.28-.38,0-.65.06-.92.12-.23.05-.47.1-.8.12-.48.04-.96,0-1.44-.1v.62c.49.09.99.13,1.48.09h0Zm0,0"/><path class="cls-2" d="m42.39,40.16c.37-.02.64-.08.88-.13.26-.05.49-.1.8-.11.49-.01,1,.1,1.52.32v-.65c-.51-.19-1.02-.29-1.53-.28-.38,0-.65.06-.92.12-.23.05-.47.1-.8.12-.48.04-.96,0-1.43-.11v.62c.49.09.99.12,1.48.09h0Zm0,0"/><path class="cls-2" d="m42.39,36.86c.37-.02.64-.08.88-.13.26-.05.49-.1.8-.11.5-.01,1,.1,1.52.32v-.65c-.51-.19-1.02-.29-1.53-.28-.38,0-.65.06-.92.12-.23.05-.47.1-.8.12-.48.03-.96,0-1.44-.1v.62c.49.09.99.13,1.48.09h0Zm0,0"/><path class="cls-2" d="m42.56,47.39c1.55-.29,2.89-.12,3.98.49v-.5l-.15-.09c-.27-.16-.99-.58-2.27-.61-.05,0-.09,0-.14,0-.11,0-.22.01-.32.02-.33.02-.66.05-1.01.11-.88.16-1.94.11-3.13-.16l-.2-.05v-11.19c-.18-.04-.36-.09-.53-.14v11.74c1.49.44,2.76.57,3.77.38h0Zm0,0"/><path class="cls-2" d="m42.56,48.48c1.55-.29,2.89-.13,3.98.49v-.49l-.07-.04s-.05-.03-.08-.04c-1-.6-2.26-.77-3.74-.49-1.14.21-2.56.06-4.21-.45l-.18-.06v-11.66c-.18-.05-.35-.11-.52-.17v12.19c1.95.71,3.57.95,4.82.72h0Zm0,0"/><path class="cls-2" d="m51.47,43.34c.24.05.51.11.88.13.49.04.99,0,1.48-.09v-.62c-.48.1-.96.14-1.43.11-.33-.03-.57-.07-.8-.12-.27-.05-.54-.11-.92-.12-.5,0-1.01.09-1.53.28v.65c.52-.22,1.02-.33,1.52-.32.31,0,.54.05.8.11h0Zm0,0"/><path class="cls-2" d="m52.17,47.39c1.01.19,2.28.06,3.77-.38v-11.74c-.18.05-.36.1-.53.14v11.19l-.2.05c-1.2.27-2.25.32-3.14.16-.35-.07-.68-.1-1.01-.11-.11,0-.22-.02-.32-.02-.05,0-.09,0-.14,0-1.28.03-2,.45-2.27.61l-.15.09v.5c1.09-.61,2.43-.78,3.98-.49h0Zm0,0"/><path class="cls-2" d="m51.47,41.69c.24.05.51.1.88.13.49.03.99,0,1.48-.09v-.62c-.48.1-.96.14-1.43.11-.33-.02-.57-.07-.8-.12-.27-.06-.54-.12-.92-.12-.5-.02-1.01.09-1.53.28v.65c.51-.22,1.02-.33,1.52-.32.31,0,.54.05.8.11h0Zm0,0"/><path class="cls-2" d="m33.36,78.31c3.35-.71,13.86-3.49,20.96-11.46,4.46-5.02,6.8-11.22,6.96-18.44v-24.85h-27.93v54.76h0Zm9.93-24.79l-1.07-.57-1.08.57.21-1.2-.87-.84,1.2-.18.54-1.09.54,1.09,1.2.18-.87.84.2,1.2Zm10.31,0l-1.07-.57-1.07.57.21-1.2-.87-.84,1.2-.18.54-1.09.54,1.09,1.2.18-.87.84.21,1.2Zm-5.93-7.91v-10.3c.28-.21.58-.38.89-.54.45-.2,1.18-.43,2.18-.43.45,0,.93.05,1.43.14.19.04.39.06.61.07.68.04,1.46-.03,2.31-.23l.32-.07v.62c.23-.06.47-.13.71-.2l.34-.1v.62c.23-.07.45-.15.69-.24l.35-.13v13.3l-.17.06c-2.12.8-3.89,1.07-5.27.81-1.44-.27-2.66-.12-3.66.45h-.75v-3.82Zm.23,7.16l1.2.18-.87.85.21,1.2-1.07-.57-1.07.57.21-1.2-.87-.85,1.2-.18.54-1.08.53,1.08Zm-10.68-17.96l.35.13c.24.09.47.17.7.24v-.62l.34.1c.25.08.48.14.72.2v-.62l.32.07c.86.2,1.63.27,2.31.23.21-.01.42-.04.61-.07.5-.09.98-.14,1.43-.14,1.01,0,1.73.23,2.18.43.31.15.61.33.89.54v14.13h-.75c-.99-.56-2.22-.71-3.66-.45-1.38.26-3.15-.02-5.27-.81l-.17-.07v-13.3h0Zm0,0"/><path class="cls-2" d="m52.17,48.48c1.25.23,2.87-.01,4.82-.72v-12.19c-.18.06-.35.12-.52.17v11.66l-.18.06c-1.65.51-3.07.66-4.21.44-1.48-.27-2.73-.11-3.74.49-.03.02-.06.03-.08.04l-.07.04v.49c1.09-.61,2.43-.77,3.98-.49h0Zm0,0"/><path class="cls-2" d="m51.47,44.99c.24.05.51.11.88.13.49.04.99,0,1.48-.09v-.62c-.48.1-.96.14-1.43.11-.33-.02-.57-.07-.8-.12-.27-.06-.54-.12-.92-.12-.5,0-1.01.09-1.53.28v.65c.52-.21,1.02-.33,1.52-.32.31,0,.54.05.8.11h0Zm0,0"/><path class="cls-2" d="m51.47,38.38c.24.05.51.1.88.13.49.04.99,0,1.48-.09v-.62c-.48.1-.96.14-1.43.1-.33-.02-.57-.07-.8-.12-.27-.05-.54-.11-.92-.12-.5-.02-1.01.09-1.53.28v.65c.52-.22,1.02-.33,1.52-.32.31,0,.54.05.8.11h0Zm0,0"/><path class="cls-2" d="m51.47,36.72c.24.05.51.11.88.13.49.04.99,0,1.48-.09v-.62c-.48.1-.96.14-1.43.1-.33-.03-.57-.07-.8-.12-.27-.05-.54-.11-.92-.12-.5-.01-1.01.09-1.53.28v.65c.51-.21,1.02-.33,1.52-.32.31,0,.54.05.8.11h0Zm0,0"/><path class="cls-2" d="m51.47,40.03c.24.05.51.11.88.13.49.04.99,0,1.48-.09v-.62c-.48.1-.96.14-1.43.11-.33-.02-.57-.08-.8-.12-.27-.06-.54-.11-.92-.12-.5-.01-1.01.09-1.53.28v.65c.52-.22,1.03-.33,1.52-.32.31,0,.54.05.8.11h0Zm0,0"/></svg>